<?xml version="1.0" encoding="iso-8859-1"?>
<!-- Generator: Adobe Illustrator 19.2.1, SVG Export Plug-In . SVG Version: 6.00 Build 0)  -->
<svg version="1.0" id="_x32_-Color_Gray__x2B__Orange"
	 xmlns="http://www.w3.org/2000/svg" xmlns:xlink="http://www.w3.org/1999/xlink" x="0px" y="0px" viewBox="0 0 500 130"
	 enable-background="new 0 0 500 130" xml:space="preserve">
<g>
	<g>
		<g>
			<path fill="#55555A" d="M1.899,115.584l7.79-9.333c5.398,4.452,11.049,7.278,17.896,7.278c5.398,0,8.651-2.141,8.651-5.651
				v-0.171c0-3.34-2.057-5.053-12.074-7.621C12.088,97.002,4.297,93.663,4.297,81.761V81.59c0-10.875,8.733-18.069,20.978-18.069
				c8.733,0,16.182,2.74,22.263,7.621l-6.85,9.934c-5.309-3.682-10.533-5.909-15.584-5.909c-5.053,0-7.708,2.313-7.708,5.224v0.171
				c0,3.939,2.569,5.224,12.929,7.879c12.163,3.167,19.01,7.535,19.01,17.982v0.171c0,11.903-9.075,18.581-22.004,18.581
				C18.251,125.174,9.091,122.007,1.899,115.584z"/>
			<path fill="#55555A" d="M57.427,64.377h24.49c14.299,0,22.947,8.478,22.947,20.724v0.171c0,13.872-10.79,21.065-24.231,21.065
				H70.615v17.982H57.427V64.377z M81.06,94.605c6.594,0,10.445-3.939,10.445-9.078v-0.171c0-5.909-4.107-9.076-10.701-9.076H70.615
				v18.325H81.06z"/>
			<path fill="#55555A" d="M123.528,63.95h12.16l25.69,60.369h-13.786l-5.48-13.444h-25.345l-5.48,13.444H97.838L123.528,63.95z
				 M137.403,99.228l-7.967-19.437l-7.961,19.437H137.403z"/>
			<path fill="#55555A" d="M167.616,64.377h27.402c7.622,0,13.53,2.142,17.469,6.08c3.338,3.34,5.139,8.05,5.139,13.701v0.172
				c0,9.676-5.224,15.756-12.846,18.581l14.644,21.407H204.01l-12.846-19.181h-10.36v19.181h-13.188V64.377z M194.163,93.492
				c6.42,0,10.103-3.425,10.103-8.477v-0.172c0-5.651-3.939-8.562-10.362-8.562h-13.1v17.211H194.163z"/>
			<g>
				<path fill="#55555A" d="M287.733,64.377h21.747c13.188,0,22.266,6.765,22.266,18.325v0.172
					c0,12.587-10.875,19.094-23.377,19.094h-16.185v22.35h-4.452V64.377z M308.626,97.858c11.132,0,18.665-5.822,18.665-14.728
					V82.96c0-9.505-7.363-14.473-18.153-14.473h-16.954v29.371H308.626z"/>
				<path fill="#55555A" d="M403.064,115.584l2.911-3.34c6.594,6.08,12.672,8.906,21.491,8.906c8.992,0,15.159-5.052,15.159-11.902
					v-0.171c0-6.338-3.341-10.019-16.957-12.759c-14.384-2.911-20.209-7.792-20.209-16.87v-0.171
					c0-8.906,8.135-15.756,19.267-15.756c8.736,0,14.473,2.398,20.554,7.279l-2.829,3.511c-5.651-4.881-11.302-6.765-17.896-6.765
					c-8.819,0-14.641,5.052-14.641,11.304v0.171c0,6.336,3.253,10.19,17.466,13.101c13.875,2.826,19.697,7.792,19.697,16.526v0.171
					c0,9.677-8.306,16.355-19.868,16.355C417.619,125.174,410.256,122.007,403.064,115.584z"/>
				<path fill="#55555A" d="M472.756,68.487H451.86v-4.11h46.241v4.11h-20.893v55.831h-4.452V68.487z"/>
			</g>
			<g>
				<path fill="#55555A" d="M239.82,89.595l20.752-25.218h16.096l-24.343,28.473l26.096,31.471h-16.957L239.82,97.559v26.76h-13.185
					V64.378h13.185V89.595z"/>
			</g>
		</g>
		<path fill="#FA6423" d="M389.368,50.717c-6.677,5.037-7.969,13.926-8.166,19.934c-10.553-12.204,19.544-48.109-14.656-70.299
			c21.171,27.397-30.123,54.332-30.123,94.693c0,15.821,9.886,29.764,31.6,34.604c21.3-4.535,31.81-18.783,31.81-34.603
			C399.833,71.456,385.147,63.563,389.368,50.717z M368.066,116.715c-11.597,0-20.998-9.401-20.998-20.998
			c0-11.597,9.401-20.998,20.998-20.998c11.597,0,20.998,9.401,20.998,20.998C389.064,107.314,379.663,116.715,368.066,116.715z"/>
	</g>
</g>
</svg>
